<svg xmlns="http://www.w3.org/2000/svg" xmlns:xlink="http://www.w3.org/1999/xlink" width="500" zoomAndPan="magnify" viewBox="0 0 375 374.999991" height="500" preserveAspectRatio="xMidYMid meet" version="1.0"><defs><clipPath id="b14de04314"><path d="M 192 155 L 216 155 L 216 248.484375 L 192 248.484375 Z M 192 155 " clip-rule="nonzero"/></clipPath><clipPath id="b22fa58df2"><path d="M 128.25 126 L 246.75 126 L 246.75 235 L 128.25 235 Z M 128.25 126 " clip-rule="nonzero"/></clipPath><clipPath id="764f192ed6"><path d="M 164 155 L 181 155 L 181 248.484375 L 164 248.484375 Z M 164 155 " clip-rule="nonzero"/></clipPath><clipPath id="46f5fa43ce"><path d="M 151 81.234375 L 209 81.234375 L 209 144 L 151 144 Z M 151 81.234375 " clip-rule="nonzero"/></clipPath></defs><g clip-path="url(#b14de04314)"><path fill="#018bdf" d="M 203.949219 155.695312 C 197.394531 155.695312 192.082031 164.980469 192.082031 176.441406 C 192.082031 184.46875 194.695312 191.429688 198.507812 194.875 C 202.515625 203.703125 201.441406 202.152344 199.363281 242.703125 C 199.296875 243.988281 200.648438 248.484375 203.9375 248.484375 C 205.257812 248.484375 206.261719 247.753906 206.988281 246.804688 C 208.078125 245.386719 208.550781 243.472656 208.511719 242.703125 C 208.332031 239.179688 208.15625 235.984375 207.992188 233.0625 C 206.285156 202.386719 205.707031 202.9375 209.351562 194.910156 C 213.183594 191.472656 215.808594 184.496094 215.808594 176.441406 C 215.808594 164.980469 210.5 155.695312 203.949219 155.695312 " fill-opacity="1" fill-rule="nonzero"/></g><g clip-path="url(#b22fa58df2)"><path fill="#018bdf" d="M 212.621094 126.523438 L 212.621094 140.683594 C 225.65625 148.996094 234.300781 163.582031 234.300781 180.195312 C 234.300781 197.074219 225.367188 211.859375 211.976562 220.09375 C 212.019531 220.820312 212.0625 221.574219 212.109375 222.355469 C 212.285156 225.386719 212.488281 228.824219 212.707031 232.800781 C 212.726562 233.132812 212.746094 233.460938 212.761719 233.785156 C 232.835938 224.296875 246.730469 203.875 246.730469 180.195312 C 246.730469 156.457031 232.769531 135.980469 212.621094 126.523438 Z M 140.683594 180.195312 C 140.683594 163.585938 149.332031 148.996094 162.367188 140.683594 L 162.367188 126.523438 C 142.214844 135.980469 128.257812 156.457031 128.257812 180.195312 C 128.257812 204.429688 142.804688 225.257812 163.636719 234.4375 C 163.894531 229.722656 164.132812 225.710938 164.335938 222.253906 C 164.359375 221.796875 164.386719 221.355469 164.414062 220.917969 C 164.339844 220.875 164.261719 220.835938 164.1875 220.792969 C 150.148438 212.710938 140.683594 197.5625 140.683594 180.195312 " fill-opacity="1" fill-rule="nonzero"/></g><g clip-path="url(#764f192ed6)"><path fill="#018bdf" d="M 180.078125 155.769531 C 178.578125 158.1875 177.488281 179.191406 177.488281 179.371094 C 177.488281 183.628906 176.292969 185.152344 175.347656 185.152344 C 174.394531 185.152344 174.058594 183.628906 174.058594 179.371094 C 174.058594 179.191406 172.503906 155.769531 172.503906 155.769531 C 172.503906 155.769531 170.949219 179.191406 170.949219 179.371094 C 170.949219 183.628906 170.613281 185.152344 169.664062 185.152344 C 168.714844 185.152344 167.519531 183.628906 167.519531 179.371094 C 167.519531 179.191406 166.429688 158.1875 164.929688 155.769531 C 164.929688 155.769531 163.179688 186.160156 166.214844 192.902344 C 171.222656 204.019531 170.144531 199.394531 167.929688 242.625 C 167.863281 243.910156 169.21875 248.40625 172.503906 248.40625 C 175.792969 248.40625 177.144531 243.910156 177.078125 242.625 C 174.863281 199.394531 173.785156 204.019531 178.792969 192.902344 C 181.832031 186.160156 180.078125 155.769531 180.078125 155.769531 " fill-opacity="1" fill-rule="nonzero"/></g><path fill="#018bdf" d="M 212.828125 94.265625 C 212.054688 97.800781 210.191406 101.355469 205.949219 102.527344 C 205.949219 102.527344 211.265625 100.09375 211.324219 93.121094 C 210.15625 87.292969 205.023438 82.898438 198.855469 82.898438 C 195.742188 82.898438 192.898438 84.03125 190.683594 85.886719 C 191.570312 89.136719 193.515625 96.84375 187.492188 101.910156 C 197.003906 98.644531 194.203125 86.335938 194.203125 86.335938 C 194.203125 86.335938 201.140625 83.101562 207.15625 89.523438 C 212.34375 95.054688 203.203125 103.324219 203.203125 103.324219 C 210.429688 105.6875 214.839844 97.632812 214.839844 97.632812 C 218.152344 97.324219 226.316406 109.003906 216.976562 115.421875 C 207.636719 121.839844 203.207031 110.804688 203.207031 110.804688 C 201.109375 116.804688 205.273438 120.9375 205.273438 120.9375 L 205.273438 133.601562 C 183.140625 123.039062 171.285156 136.550781 171.285156 136.550781 C 188.019531 126.867188 202.296875 135.632812 207.667969 138.5625 L 207.667969 120.140625 C 205.675781 118.980469 204.03125 117.195312 203.761719 114.445312 C 203.761719 114.445312 204.625 117.726562 208.277344 119.292969 C 209.125 119.472656 210 119.582031 210.902344 119.582031 C 217.9375 119.582031 223.640625 113.875 223.640625 106.839844 C 223.640625 100.460938 218.945312 95.191406 212.828125 94.265625 " fill-opacity="1" fill-rule="nonzero"/><g clip-path="url(#46f5fa43ce)"><path fill="#018bdf" d="M 169.820312 138.953125 C 169.820312 138.953125 170.453125 127.34375 178.117188 118.703125 C 189.660156 105.6875 179.699219 100.230469 179.699219 100.230469 C 186.828125 113.664062 163.53125 116.394531 158.984375 108.484375 C 154.898438 101.378906 161.601562 97.632812 161.601562 97.632812 C 167.316406 105.964844 173.308594 103.375 173.308594 103.375 C 162.953125 94.59375 167.355469 82.777344 180.398438 84.234375 C 186.8125 84.949219 189.464844 89.527344 189.9375 94.238281 C 190.351562 92.515625 190.421875 90.257812 189.445312 87.554688 C 187.898438 83.261719 183.007812 81.238281 179.367188 81.238281 C 172.953125 81.238281 166.402344 84.835938 165.167969 90.746094 C 163.476562 98.832031 170.378906 102.527344 170.378906 102.527344 C 166.078125 101.339844 164.222656 97.710938 163.472656 94.128906 C 156.722656 94.449219 151.347656 100.011719 151.347656 106.839844 C 151.347656 113.875 157.050781 119.582031 164.085938 119.582031 C 164.933594 119.582031 165.757812 119.488281 166.558594 119.328125 C 170.277344 117.777344 171.152344 114.445312 171.152344 114.445312 C 170.886719 117.164062 169.277344 118.9375 167.316406 120.097656 L 167.316406 143.066406 C 168.113281 142.628906 185.804688 133.097656 208.054688 141.953125 C 208.054688 141.953125 190.628906 129.605469 169.820312 138.953125 " fill-opacity="1" fill-rule="nonzero"/></g></svg>